<svg width="25" height="26" viewBox="0 0 25 26" fill="none" xmlns="http://www.w3.org/2000/svg">
<circle cx="12.5" cy="12.5" r="12.5" fill="#444444"/>
<path d="M16.209 17.9736L16.1123 18.0791C15.292 18.0264 14.29 18 13.1064 18C11.9521 18 10.7363 18.0264 9.45898 18.0791L9.3623 17.9824V17.4463L9.46777 17.3584C9.7666 17.3232 10.0566 17.2939 10.3379 17.2705C10.8418 17.2295 11.1641 17.1797 11.3047 17.1211C11.4043 17.0742 11.4893 16.9658 11.5596 16.7959C11.6709 16.5205 11.7266 15.4072 11.7266 13.4561V11.2676C11.7266 10.6113 11.7148 9.7793 11.6914 8.77148L11.6738 8.1123C11.6738 7.81934 11.6123 7.67285 11.4893 7.67285C11.4365 7.67285 11.2637 7.74023 10.9707 7.875C10.168 8.24414 9.47949 8.56934 8.90527 8.85059L8.7998 8.78906C8.76465 8.45508 8.70312 8.08301 8.61523 7.67285L8.62402 7.60254C10.2412 7.14551 12.0488 6.5332 14.0469 5.76562L14.2314 5.89746C14.208 6.24316 14.1758 6.75586 14.1348 7.43555C14.1172 7.69336 14.0996 8.38477 14.082 9.50977L14.0557 12.9639C14.0557 15.4365 14.0967 16.7637 14.1787 16.9453C14.2373 17.0801 14.3252 17.1621 14.4424 17.1914C14.6533 17.25 15.2041 17.3027 16.0947 17.3496L16.209 17.4375V17.9736Z" fill="#F1F0E8"/>
</svg>
