<svg width="25" height="26" viewBox="0 0 25 26" fill="none" xmlns="http://www.w3.org/2000/svg">
<circle cx="12.5" cy="12.5" r="12.5" fill="#B6A96E"/>
<path d="M16.4902 16.0225C16.4199 16.708 16.4111 17.3584 16.4639 17.9736L16.3584 18.0967C14.7471 18.0322 13.4287 18 12.4033 18C11.3311 18 10.0596 18.0293 8.58887 18.0879L8.47461 17.9824V17.1826L10.2676 15.3545C11.6094 13.9893 12.4854 12.9521 12.8955 12.2432C13.1357 11.8271 13.3057 11.4492 13.4053 11.1094C13.5049 10.7637 13.5547 10.3975 13.5547 10.0107C13.5547 8.61035 12.9131 7.91016 11.6299 7.91016C10.915 7.91016 10.3467 8.18262 9.9248 8.72754C9.86035 8.97949 9.74609 9.41895 9.58203 10.0459L9.48535 10.1338H8.98438L8.89648 10.0459L9.22168 7.11035C9.95996 6.37207 10.9883 6.00293 12.3066 6.00293C13.4844 6.00293 14.3926 6.31055 15.0312 6.92578C15.623 7.48828 15.9189 8.23535 15.9189 9.16699C15.9189 9.54785 15.875 9.89941 15.7871 10.2217C15.6055 10.8779 15.2334 11.54 14.6709 12.208C14.2021 12.7646 13.4932 13.4971 12.5439 14.4053C12.1982 14.7451 11.6738 15.2461 10.9707 15.9082L10.9883 16.0225H12.5439C12.9951 16.0225 13.4229 16.0166 13.8271 16.0049L15.3477 15.9609C15.7344 15.9492 16.0713 15.9316 16.3584 15.9082L16.4902 16.0225Z" fill="#F1F0E8"/>
</svg>
