<svg width="25" height="26" viewBox="0 0 25 26" fill="none" xmlns="http://www.w3.org/2000/svg">
<circle cx="12.5" cy="12.5" r="12.5" fill="#B6A96E"/>
<path d="M16.2354 13.9219C16.2354 15.1699 15.7139 16.2275 14.6709 17.0947C13.6338 17.9561 12.415 18.3867 11.0146 18.3867C10.2705 18.3867 9.55566 18.2256 8.87012 17.9033C8.76465 16.8838 8.62402 16.0225 8.44824 15.3193L8.50098 15.1963L8.94043 15.0645L9.0459 15.1084C9.62598 16.5908 10.5547 17.332 11.832 17.332C12.4941 17.332 13.0244 17.1182 13.4229 16.6904C13.8271 16.2568 14.0293 15.665 14.0293 14.915C14.0293 14.1709 13.8096 13.5967 13.3701 13.1924C12.9541 12.8057 12.3945 12.6123 11.6914 12.6123C11.3691 12.6123 11.0205 12.665 10.6455 12.7705L10.54 12.6562C10.6689 12.2402 10.7803 11.7949 10.874 11.3203H11.5947C12.1162 11.3203 12.5674 11.1357 12.9482 10.7666C13.3291 10.3916 13.5195 9.94629 13.5195 9.43066C13.5195 8.94434 13.3496 8.54883 13.0098 8.24414C12.6758 7.93945 12.2568 7.78711 11.7529 7.78711C10.9561 7.78711 10.4141 7.99219 10.127 8.40234C9.99219 8.5957 9.86328 8.87402 9.74023 9.2373L9.64355 9.52734L9.52051 9.60645L9.07227 9.57129L8.98438 9.45703L9.29199 8.02441C9.37988 7.62012 9.44434 7.22461 9.48535 6.83789C10.2471 6.26367 11.2051 5.97656 12.3594 5.97656C13.3379 5.97656 14.1172 6.2168 14.6973 6.69727C15.248 7.16602 15.5234 7.77832 15.5234 8.53418C15.5234 9.62402 14.873 10.5088 13.5723 11.1885C14.2285 11.1885 14.8232 11.4111 15.3564 11.8564C15.9424 12.3428 16.2354 13.0312 16.2354 13.9219Z" fill="#F1F0E8"/>
</svg>
