<svg width="25" height="26" viewBox="0 0 25 26" fill="none" xmlns="http://www.w3.org/2000/svg">
<circle cx="12.5" cy="12.5" r="12.5" fill="#B6A96E"/>
<path d="M16.5078 17.9648L16.4111 18.0703C15.5615 18.0234 14.6152 18 13.5723 18C12.9805 18 12.0049 18.0234 10.6455 18.0703L10.5576 17.9736V17.4287L10.6543 17.332L11.5947 17.2617C12.0635 17.2266 12.3418 17.1621 12.4297 17.0684C12.5469 16.9395 12.6143 16.623 12.6318 16.1191L12.667 14.9678H11.5068L9.74902 14.9854C9.43262 14.9854 8.9668 14.9941 8.35156 15.0117L8.22852 14.2822C8.46875 13.5381 9.10742 12.2051 10.1445 10.2832C11.2109 8.30859 12.04 6.95215 12.6318 6.21387L14.8379 5.77441L14.9961 5.92383C14.8906 7.05469 14.8379 8.89746 14.8379 11.4521V13.5176H15.1191C15.3945 13.5176 15.8047 13.5029 16.3496 13.4736L16.4551 13.5703C16.4375 14.1445 16.4375 14.5781 16.4551 14.8711L16.3496 14.9766C16.2559 14.9707 16.1064 14.9678 15.9014 14.9678H14.8379C14.8379 16.2568 14.9023 16.9629 15.0312 17.0859C15.1367 17.1855 15.3623 17.25 15.708 17.2793C15.9717 17.3027 16.209 17.3291 16.4199 17.3584L16.5078 17.4375V17.9648ZM12.7725 7.40039C11.9932 8.64844 11.416 9.62402 11.041 10.3271C10.7832 10.8076 10.2764 11.8711 9.52051 13.5176H12.6758L12.7725 7.40039Z" fill="#F1F0E8"/>
</svg>
