<svg width="12" height="18" viewBox="0 0 12 18" fill="none" xmlns="http://www.w3.org/2000/svg">
<path fill-rule="evenodd" clip-rule="evenodd" d="M3.97525 9.19315L3.9766 2.03425C4.64072 1.99452 5.54106 2.00548 6.19438 2.03014C9.98605 2.17397 10.5192 6.84247 7.97615 8.63699C7.54016 8.94521 6.89629 9.18904 6.25107 9.20548C5.6072 9.22192 4.59348 9.2548 3.97525 9.19315ZM3.97525 11.0452C4.99438 10.9164 6.18628 11.111 7.26614 10.9616C9.90506 10.5959 12 8.61918 12 5.58082C12 2.36712 9.76738 0 6.51159 0H1.53611C1.53611 1.1411 1.61035 8.76712 1.49966 9.23014H0L0.0121485 11.0301H1.53611L1.55906 12.1411H0V13.9301H1.53611V18H3.97525V13.9301H10.5935L10.6313 12.1411L3.97795 12.1329L3.97525 11.0452Z" fill="#444444"/>
</svg>
