<svg width="28" height="28" viewBox="0 0 28 28" fill="none" xmlns="http://www.w3.org/2000/svg">
<rect width="28" height="28" rx="7" fill="#B6A96E"/>
<path d="M17.6987 6.00312L15.7799 6C13.6242 6 12.231 7.44892 12.231 9.69152V11.3936H10.3017C10.135 11.3936 10 11.5306 10 11.6996V14.1656C10 14.3346 10.1352 14.4715 10.3017 14.4715H12.231V20.6941C12.231 20.8631 12.366 21 12.5327 21H15.0499C15.2166 21 15.3517 20.863 15.3517 20.6941V14.4715H17.6075C17.7742 14.4715 17.9092 14.3346 17.9092 14.1656L17.9101 11.6996C17.9101 11.6184 17.8782 11.5407 17.8217 11.4833C17.7652 11.4259 17.6883 11.3936 17.6082 11.3936H15.3517V9.95072C15.3517 9.25723 15.5147 8.90518 16.4058 8.90518L17.6984 8.90472C17.865 8.90472 18 8.7677 18 8.59886V6.30898C18 6.14029 17.8652 6.00343 17.6987 6.00312Z" fill="#827A56"/>
</svg>
