<svg width="28" height="28" viewBox="0 0 28 28" fill="none" xmlns="http://www.w3.org/2000/svg">
<rect x="1" y="1" width="26" height="26" rx="6" stroke="#B6A96E" stroke-width="2"/>
<path d="M14 7C10.1342 7 7 10.1342 7 14C7 17.8658 10.1342 21 14 21C17.8658 21 21 17.8658 21 14C21 10.1342 17.8658 7 14 7ZM14 18.375C11.5885 18.375 9.625 16.4115 9.625 14C9.625 11.5868 11.5885 9.625 14 9.625C16.4115 9.625 18.375 11.5868 18.375 14C18.375 16.4115 16.4115 18.375 14 18.375Z" fill="#B6A96E"/>
<path d="M21.525 7.40798C22.0402 7.40798 22.4578 6.99037 22.4578 6.47523C22.4578 5.96009 22.0402 5.54248 21.525 5.54248C21.0099 5.54248 20.5923 5.96009 20.5923 6.47523C20.5923 6.99037 21.0099 7.40798 21.525 7.40798Z" fill="#B6A96E"/>
</svg>
