<svg width="23" height="33" viewBox="0 0 23 33" fill="none" xmlns="http://www.w3.org/2000/svg">
<path d="M19.5224 0C19.5224 0 16.8851 2.63418 14.0329 3.69619C-7.08882 11.5614 1.8191 26.8886 2.10971 26.9391C2.10971 26.9391 3.29411 24.8157 4.89405 23.6045C15.0467 15.9206 17.1102 7.07608 17.1102 7.07608C17.1102 7.07608 14.8319 17.7189 5.79965 24.3412C3.80475 25.803 2.45397 29.4024 1.88217 33C1.88217 33 3.29626 32.4118 3.90434 32.2525C4.14146 30.6594 4.63722 29.134 5.47538 27.7713C18.0991 29.3187 22.2335 18.8465 22.7737 15.195C24.0485 6.57078 19.5224 0 19.5224 0Z" fill="#B6A96E"/>
</svg>
