<svg width="11" height="16" viewBox="0 0 11 16" fill="none" xmlns="http://www.w3.org/2000/svg">
<path d="M9.3368 0C9.3368 0 8.07549 1.27718 6.71138 1.79209C-3.39031 5.60555 0.870004 13.0369 1.00899 13.0614C1.00899 13.0614 1.57544 12.0319 2.34063 11.4446C7.19623 7.7191 8.18312 3.43083 8.18312 3.43083C8.18312 3.43083 7.09353 8.59099 2.77375 11.8018C1.81966 12.5106 1.17364 14.2557 0.90017 16C0.90017 16 1.57647 15.7148 1.86729 15.6376C1.9807 14.8652 2.2178 14.1256 2.61866 13.4649C8.65607 14.2151 10.6334 9.1377 10.8918 7.36726C11.5014 3.18583 9.3368 0 9.3368 0Z" fill="white"/>
</svg>
