<svg width="28" height="28" viewBox="0 0 28 28" fill="none" xmlns="http://www.w3.org/2000/svg">
<rect x="1" y="1" width="26" height="26" rx="6" stroke="#B6A96E" stroke-width="2"/>
<path d="M13.3176 18.958H14.3337C14.3337 18.958 14.6406 18.9232 14.7975 18.7491C14.9417 18.5891 14.9371 18.2889 14.9371 18.2889C14.9371 18.2889 14.9172 16.8831 15.5499 16.676C16.1738 16.472 16.9749 18.0347 17.8238 18.6357C18.4659 19.0903 18.9537 18.9908 18.9537 18.9908L21.224 18.958C21.224 18.958 22.4116 18.8825 21.8485 17.9197C21.8023 17.8411 21.5204 17.2076 20.1604 15.9059C18.7367 14.5436 18.9276 14.764 20.6423 12.4074C21.6866 10.9723 22.104 10.0961 21.9736 9.72095C21.8493 9.36346 21.0812 9.45788 21.0812 9.45788L18.5251 9.47418C18.5251 9.47418 18.3354 9.44755 18.195 9.53421C18.0576 9.61897 17.9694 9.81699 17.9694 9.81699C17.9694 9.81699 17.5647 10.9275 17.0253 11.872C15.8871 13.8648 15.4319 13.9703 15.2459 13.8464C14.813 13.558 14.9212 12.6879 14.9212 12.0696C14.9212 10.1382 15.2053 9.33302 14.3679 9.12454C14.0901 9.05541 13.8854 9.00968 13.1748 9.00221C12.2627 8.99266 11.4909 9.00509 11.0538 9.2259C10.763 9.37274 10.5386 9.6999 10.6753 9.71873C10.8443 9.74192 11.2268 9.82519 11.4296 10.1097C11.6916 10.4773 11.6825 11.3024 11.6825 11.3024C11.6825 11.3024 11.833 13.5759 11.331 13.8582C10.9865 14.0519 10.5138 13.6565 9.49899 11.8485C8.97913 10.9224 8.58649 9.89858 8.58649 9.89858C8.58649 9.89858 8.51088 9.70729 8.37584 9.60489C8.21205 9.48082 7.98318 9.4415 7.98318 9.4415L5.5541 9.45785C5.5541 9.45785 5.18951 9.46836 5.05556 9.63183C4.93637 9.77737 5.04603 10.0781 5.04603 10.0781C5.04603 10.0781 6.94762 14.6655 9.101 16.9773C11.0757 19.0972 13.3176 18.958 13.3176 18.958Z" fill="#B6A96E"/>
</svg>
