<svg width="19" height="19" viewBox="0 0 19 19" fill="none" xmlns="http://www.w3.org/2000/svg">
<path d="M14.2747 13.155L17.6654 16.545L16.5452 17.6652L13.1553 14.2745C11.894 15.2856 10.3251 15.8356 8.7085 15.8333C4.7755 15.8333 1.5835 12.6413 1.5835 8.70825C1.5835 4.77525 4.7755 1.58325 8.7085 1.58325C12.6415 1.58325 15.8335 4.77525 15.8335 8.70825C15.8358 10.3248 15.2858 11.8937 14.2747 13.155ZM12.6866 12.5676C13.6913 11.5344 14.2524 10.1494 14.2502 8.70825C14.2502 5.64609 11.7699 3.16659 8.7085 3.16659C5.64633 3.16659 3.16683 5.64609 3.16683 8.70825C3.16683 11.7696 5.64633 14.2499 8.7085 14.2499C10.1497 14.2522 11.5347 13.6911 12.5679 12.6864L12.6866 12.5676ZM7.91683 7.91659V5.54159H9.50016V7.91659H11.8752V9.49992H9.50016V11.8749H7.91683V9.49992H5.54183V7.91659H7.91683Z" fill="white"/>
</svg>
