<svg width="86" height="34" viewBox="0 0 86 34" fill="none" xmlns="http://www.w3.org/2000/svg">
<g clip-path="url(#clip0)">
<path d="M0.248047 23.448H2.37149V12.9756H3.6367C4.53917 12.9844 5.24698 12.8695 5.76899 12.6395C6.28216 12.4184 6.65376 12.0469 6.8661 11.525C7.07845 11.0032 7.18462 10.3044 7.17577 9.42878V3.73263C7.18462 2.85698 7.07845 2.15822 6.8661 1.63637C6.65376 1.11452 6.28216 0.743032 5.76899 0.521908C5.24698 0.291939 4.53917 0.176955 3.6367 0.1858H0.248047V23.448ZM2.37149 11.1712V1.99017H3.40666C3.72518 1.98133 4.01715 2.02555 4.26489 2.09631C4.50378 2.17591 4.69842 2.32628 4.83999 2.52971C4.98155 2.74199 5.05233 3.05156 5.05233 3.44074V9.72066C5.05233 10.1098 4.98155 10.4106 4.83999 10.6317C4.69842 10.8351 4.50378 10.9855 4.26489 11.0562C4.01715 11.1359 3.72518 11.1801 3.40666 11.1712H2.37149ZM13.6523 23.448H19.2971V21.6437H15.7846V16.8585H19.1378V15.0542H15.7846V1.99017H19.2971V0.1858H13.6523V23.448ZM26.4548 23.448H32.0908V21.6437H28.5783V0.1858H26.4548V23.448ZM39.2486 23.448H41.372V0.1858H39.2486V23.448ZM53.6172 6.27113H55.7495V3.21077C55.7495 2.55625 55.6256 1.98133 55.3779 1.5037C55.1301 1.02607 54.7674 0.654582 54.2719 0.389234C53.7853 0.123885 53.166 5.58905e-05 52.4228 -0.00878906C51.6884 5.58905e-05 51.0691 0.123885 50.5824 0.389234C50.087 0.654582 49.7154 1.02607 49.4765 1.5037C49.2287 1.98133 49.1049 2.55625 49.1049 3.21077V20.4231C49.1049 21.0776 49.2287 21.6437 49.4765 22.1301C49.7154 22.6078 50.087 22.9792 50.5824 23.2446C51.0691 23.5099 51.6884 23.6338 52.4228 23.6426C53.166 23.6338 53.7853 23.5099 54.2719 23.2446C54.7674 22.9792 55.1301 22.6078 55.3779 22.1301C55.6256 21.6437 55.7495 21.0776 55.7495 20.4231V17.0973H53.6172V20.3523C53.626 20.8565 53.5287 21.2279 53.3429 21.4668C53.1483 21.7144 52.8474 21.8382 52.4228 21.8382C52.0158 21.8382 51.7061 21.7144 51.5114 21.4668C51.3256 21.2279 51.2283 20.8565 51.2372 20.3523V3.28153C51.2283 2.77737 51.3256 2.40588 51.5114 2.15822C51.7061 1.91057 52.0158 1.79558 52.4228 1.79558C52.8474 1.79558 53.1483 1.91057 53.3429 2.15822C53.5287 2.40588 53.626 2.77737 53.6172 3.28153V6.27113ZM68.1539 23.448H70.2774L66.8622 0.1858H63.969L60.5449 23.448H62.6772L63.5443 17.0001H67.2868L68.1539 23.448ZM67.0568 15.1957H63.7743L65.3846 1.79558H65.4465L67.0568 15.1957ZM82.5314 20.0958H82.4606L79.8505 0.1858H76.7627V23.448H78.6296V2.75968H78.6915L81.3723 23.448H84.3982V0.1858H82.5314V20.0958Z" fill="white"/>
<path d="M0.0887794 33.9116H-0.00854492V26.4818H0.106475C0.407296 26.4818 0.690421 26.4818 0.955851 26.473C1.47786 26.4553 1.78753 26.4464 1.8937 26.4464C2.60152 26.4464 3.23855 26.5437 3.78711 26.7383C4.33566 26.9329 4.7692 27.2071 5.09656 27.5521C5.42392 27.8882 5.66281 28.2773 5.82207 28.7019C5.98133 29.1353 6.06096 29.5952 6.06096 30.0906C6.06096 31.205 5.68935 32.1249 4.94615 32.8502C4.21179 33.5755 3.16777 33.9293 1.80523 33.9293C1.50441 33.9293 1.22128 33.9293 0.964699 33.9204C0.708116 33.9116 0.416143 33.9116 0.0887794 33.9116ZM1.86716 27.0037C1.71675 27.0037 1.48671 27.0037 1.18589 27.0214C0.88507 27.0302 0.681573 27.0302 0.575401 27.0302V33.3632C0.805441 33.3632 1.02663 33.3632 1.23013 33.3632C1.43363 33.372 1.58404 33.372 1.68136 33.372C1.76984 33.3809 1.82292 33.3809 1.82292 33.3809C2.98197 33.3809 3.87558 33.0802 4.50377 32.4698C5.13195 31.8507 5.45047 31.0635 5.45047 30.0906C5.45047 29.1795 5.14965 28.4366 4.548 27.8616C3.93752 27.2867 3.0439 27.0037 1.86716 27.0037ZM8.65332 33.9116H8.06938V26.4818H8.65332V33.9116ZM16.572 30.8689H14.3955V30.3117H17.1294V32.9917C16.802 33.3101 16.3773 33.5578 15.8642 33.7435C15.351 33.9204 14.8467 34.0089 14.3424 34.0089C13.2364 34.0089 12.3428 33.6639 11.6704 32.9652C10.998 32.2753 10.6617 31.3465 10.6617 30.1967C10.6617 29.0999 10.9891 28.1977 11.6615 27.4813C12.3251 26.7472 13.1922 26.3845 14.2716 26.3845C15.2006 26.3845 15.9703 26.6233 16.5631 27.0833L16.2977 27.5432C15.8199 27.1363 15.1652 26.9418 14.3335 26.9418C13.4311 26.9418 12.6879 27.2425 12.1216 27.8528C11.5554 28.4631 11.2722 29.2414 11.2722 30.1967C11.2722 31.1696 11.5554 31.9657 12.1216 32.5671C12.6967 33.1598 13.4488 33.4516 14.3689 33.4516C14.7582 33.4516 15.1741 33.3809 15.5987 33.2394C16.0057 33.1067 16.3331 32.9209 16.572 32.6821V30.8689ZM19.8191 33.9116H19.2351V26.4818H19.8191V33.9116ZM24.1102 27.0302H21.3586V26.4818H27.4458V27.0302H24.6941V33.9116H24.1102V27.0302ZM28.3659 33.9116H27.7731L31.0114 26.4199H31.4892L34.7274 33.9116H34.0992L33.0198 31.3819H29.4542L28.3659 33.9116ZM32.7721 30.8335L31.2326 27.2248L29.6842 30.8335H32.7721ZM40.6288 33.9116H36.1253V26.4818H36.7093V33.3632H40.6288V33.9116ZM44.1236 33.9116H43.5308L46.7691 26.4199H47.2469L50.4851 33.9116H49.8569L48.7775 31.3819H45.203L44.1236 33.9116ZM48.5298 30.8335L46.9903 27.2248L45.4419 30.8335H48.5298ZM57.1916 30.8689H55.0151V30.3117H57.749V32.9917C57.4217 33.3101 56.997 33.5578 56.4838 33.7435C55.9707 33.9204 55.4663 34.0089 54.962 34.0089C53.8561 34.0089 52.9624 33.6639 52.29 32.9652C51.6176 32.2753 51.2814 31.3465 51.2814 30.1967C51.2814 29.0999 51.6088 28.1977 52.2812 27.4813C52.9448 26.7472 53.8118 26.3845 54.8912 26.3845C55.8202 26.3845 56.59 26.6233 57.1828 27.0833L56.9174 27.5432C56.4396 27.1363 55.7849 26.9418 54.9532 26.9418C54.0507 26.9418 53.3075 27.2425 52.7413 27.8528C52.175 28.4631 51.8919 29.2414 51.8919 30.1967C51.8919 31.1696 52.175 31.9657 52.7413 32.5671C53.3164 33.1598 54.0684 33.4516 54.9886 33.4516C55.3779 33.4516 55.7937 33.3809 56.2184 33.2394C56.6254 33.1067 56.9527 32.9209 57.1916 32.6821V30.8689ZM63.8185 33.9116H59.607V26.4818H63.7124V27.0302H60.191V29.8694H63.3938V30.4178H60.191V33.3632H63.8185V33.9116ZM71.8168 26.4818V33.9116H71.3479L66.2605 27.5255V33.9116H65.7119V26.4818H66.172L71.2594 32.8944V26.4818H71.8168ZM79.3639 32.7529L79.5939 33.1863C79.3373 33.4428 79.01 33.6462 78.5941 33.7877C78.1783 33.9381 77.7448 34.0089 77.2935 34.0089C76.1876 34.0089 75.2851 33.6639 74.595 32.9652C73.9049 32.2841 73.5687 31.3554 73.5687 30.1967C73.5687 29.0999 73.896 28.1977 74.5596 27.4813C75.232 26.7472 76.1079 26.3845 77.2051 26.3845C78.1518 26.3845 78.895 26.6233 79.4612 27.0833L79.1781 27.5255C78.6826 27.1363 78.0279 26.9418 77.2139 26.9418C76.3114 26.9418 75.5771 27.2425 75.0197 27.8616C74.4623 28.4631 74.1792 29.2414 74.1792 30.1967C74.1792 31.1696 74.4711 31.948 75.0551 32.5495C75.6302 33.1509 76.3911 33.4516 77.3378 33.4516C78.1164 33.4516 78.7888 33.2217 79.3639 32.7529ZM85.3626 26.4818H86.0085L83.3365 30.6655V33.9116H82.7525V30.6655L80.1071 26.4818H80.7884L83.0711 30.1082L85.3626 26.4818Z" fill="white"/>
</g>
<defs>
<clipPath id="clip0">
<rect width="86" height="34" fill="white"/>
</clipPath>
</defs>
</svg>
