<?xml version="1.0" ?><!DOCTYPE svg  PUBLIC '-//W3C//DTD SVG 1.1//EN'  'http://www.w3.org/Graphics/SVG/1.1/DTD/svg11.dtd'><svg height="43.3492mm" style="shape-rendering:geometricPrecision; text-rendering:geometricPrecision; image-rendering:optimizeQuality; fill-rule:evenodd; clip-rule:evenodd" version="1.1" viewBox="0 0 225 225" width="43.3492mm" xml:space="preserve" xmlns="http://www.w3.org/2000/svg" xmlns:xlink="http://www.w3.org/1999/xlink"><defs><style type="text/css">
   <![CDATA[
    .fil2 {fill:#C4547B}
    .fil0 {fill:#F26798}
    .fil1 {fill:white}
   ]]>
  </style></defs><g id="Layer_x0020_1"><g id="_439093928"><rect class="fil0" height="225" rx="24" ry="24" width="225"/><path class="fil1" d="M132 168c-2,2 -12,4 -15,4 -6,1 -13,1 -18,0 -9,-2 -14,-4 -21,-9 -5,-2 -4,-3 -3,-5 5,-8 12,-15 19,-20 2,-2 4,-3 6,-4 3,-2 16,-10 19,-9 3,2 13,39 13,43zm-48 -106c1,0 2,2 4,4l9 14c0,0 0,0 0,0 0,1 2,3 2,4l6 9c0,1 1,2 0,2 -1,2 -21,5 -25,5 -3,1 -25,3 -27,2 -1,-2 3,-11 4,-13 5,-10 12,-18 21,-23l6 -4zm27 18c-1,-1 -2,-3 -3,-5l-8 -11c-1,-1 -1,-2 -2,-2 0,-1 0,-1 -1,-2 0,-1 0,-1 0,-2 2,-1 10,-1 13,-1 12,0 24,4 33,10 5,4 5,4 3,6 -4,5 -12,11 -18,14 -2,1 -9,5 -11,4 0,-1 -6,-11 -6,-11zm31 82c0,-1 -2,-8 -2,-9 -2,-9 -5,-18 -8,-27 -1,-5 -2,-5 4,-5 3,0 8,-1 11,0 4,0 17,1 19,3 1,3 -2,10 -3,12 -1,4 -3,7 -5,11 -2,3 -5,6 -7,8 -1,1 -7,7 -9,7zm-90 -49c1,0 7,0 9,0 14,-1 31,-3 44,-7 6,-1 6,-2 7,1 1,2 3,6 3,7 -1,1 -3,1 -4,2 -1,0 -2,1 -4,1 -7,3 -15,8 -20,13 -3,2 -9,8 -11,10 -2,2 -4,4 -5,7l-5 6c-1,0 -5,-6 -6,-8 -2,-3 -3,-6 -4,-9 -3,-5 -6,-18 -4,-23zm71 -12c2,-2 5,-2 8,-4 3,-2 6,-3 8,-5 3,-2 5,-4 7,-6 2,-1 3,-2 4,-3 5,-5 4,-6 6,-3 5,7 8,14 10,22 0,2 2,10 1,11 -1,1 -8,-1 -9,-1 -4,0 -7,0 -10,-1 -4,0 -7,0 -11,0 -1,0 -9,1 -10,1 0,-1 -5,-10 -4,-11zm-16 -55c-2,0 -5,0 -8,1 -13,2 -25,8 -35,16 -7,7 -14,16 -18,25 -4,11 -5,18 -5,29 0,10 4,21 7,28 7,15 20,26 35,33 9,4 18,5 29,5 9,0 21,-4 27,-7 15,-7 27,-20 34,-35 1,-5 3,-9 4,-14 0,-2 0,-5 1,-7 0,-2 0,-3 0,-4 0,-2 0,-3 0,-4 0,-13 -6,-28 -14,-38 -5,-7 -10,-12 -17,-17 -7,-5 -16,-8 -25,-10 -4,0 -12,-1 -15,-1z"/><path class="fil2" d="M225 136l-57 -56c6,9 10,21 10,32 0,1 0,2 0,4 0,1 0,2 0,4 -1,2 -1,5 -1,7 -1,5 -3,9 -4,14 -7,15 -19,28 -34,35 -6,3 -18,7 -27,7 -11,0 -20,-1 -29,-5 -8,-4 -15,-8 -21,-14l61 61 77 0 25 -25 0 -64z"/><path class="fil2" d="M132 168c0,-4 -10,-41 -13,-43 -3,-1 -16,7 -19,9 -2,1 -4,2 -6,4 -7,5 -14,12 -19,20 -1,2 -2,3 3,5 7,5 12,7 21,9 5,1 12,1 18,0 3,0 13,-2 15,-4z"/><path class="fil2" d="M132 126c3,9 6,18 8,27 0,1 2,8 2,9 2,0 8,-6 9,-7 2,-2 5,-5 7,-8 2,-4 4,-7 5,-11 1,-2 4,-9 3,-12 -2,-2 -15,-3 -19,-3 -3,-1 -8,0 -11,0 -6,0 -5,0 -4,5z"/><path class="fil2" d="M148 111c3,1 6,1 10,1 1,0 8,2 9,1 1,-1 -1,-9 -1,-11 -2,-8 -5,-15 -10,-22 -2,-3 -1,-2 -6,3 -1,1 -2,2 -4,3 -2,2 -4,4 -7,6 -2,2 -5,3 -8,5 -3,2 -6,2 -8,4 -1,1 4,10 4,11 1,0 9,-1 10,-1 4,0 7,0 11,0z"/><path class="fil2" d="M87 130c5,-5 13,-10 20,-13 2,0 3,-1 4,-1 1,-1 3,-1 4,-2 0,-1 -2,-5 -3,-7 -1,-3 -1,-2 -7,-1 -13,4 -30,6 -44,7 -2,0 -8,0 -9,0 -2,5 1,18 4,23 1,3 2,6 4,9 1,2 5,8 6,8l5 -6c1,-3 3,-5 5,-7 2,-2 8,-8 11,-10z"/><path class="fil2" d="M80 100c4,0 24,-3 25,-5 1,0 0,-1 0,-2l-6 -9c0,-1 -2,-3 -2,-4l0 0 -9 -14c-2,-2 -3,-4 -4,-4l-6 4c-9,5 -16,13 -21,23 -1,2 -5,11 -4,13 2,1 24,-1 27,-2z"/><path class="fil2" d="M111 80c0,0 6,10 6,11 2,1 9,-3 11,-4 6,-3 14,-9 18,-14 2,-2 2,-2 -3,-6 -9,-6 -21,-10 -33,-10 -3,0 -11,0 -13,1 0,1 0,1 0,2 1,1 1,1 1,2 1,0 1,1 2,2l8 11c1,2 2,4 3,5z"/></g></g></svg>